<mxfile host="app.diagrams.net" modified="2024-01-19T03:45:47.746Z" agent="Mozilla/5.0 (X11; Linux x86_64) AppleWebKit/537.36 (KHTML, like Gecko) Chrome/120.0.0.0 Safari/537.36" etag="w34yChhgMSHNY-kW6gtt" version="22.1.21" type="device">
  <diagram name="Page-1" id="9jw7U4zyTjH1k3uzOlmR">
    <mxGraphModel dx="2390" dy="1340" grid="1" gridSize="10" guides="1" tooltips="1" connect="1" arrows="1" fold="1" page="1" pageScale="1" pageWidth="827" pageHeight="1169" math="0" shadow="0">
      <root>
        <mxCell id="0" />
        <mxCell id="1" parent="0" />
        <mxCell id="JQA1jgwv4ob85xbCMon5-1" value="" style="rounded=0;whiteSpace=wrap;html=1;" vertex="1" parent="1">
          <mxGeometry x="40" y="40" width="420" height="600" as="geometry" />
        </mxCell>
        <mxCell id="JQA1jgwv4ob85xbCMon5-2" value="" style="rounded=0;whiteSpace=wrap;html=1;" vertex="1" parent="1">
          <mxGeometry x="560" y="40" width="240" height="600" as="geometry" />
        </mxCell>
        <mxCell id="JQA1jgwv4ob85xbCMon5-4" value="Browser" style="text;html=1;strokeColor=none;fillColor=none;align=center;verticalAlign=middle;whiteSpace=wrap;rounded=0;fontSize=20;fontStyle=1" vertex="1" parent="1">
          <mxGeometry x="220" y="10" width="60" height="30" as="geometry" />
        </mxCell>
        <mxCell id="JQA1jgwv4ob85xbCMon5-5" value="Server" style="text;html=1;strokeColor=none;fillColor=none;align=center;verticalAlign=middle;whiteSpace=wrap;rounded=0;fontSize=20;fontStyle=1" vertex="1" parent="1">
          <mxGeometry x="650" y="10" width="60" height="30" as="geometry" />
        </mxCell>
        <mxCell id="JQA1jgwv4ob85xbCMon5-26" style="edgeStyle=orthogonalEdgeStyle;rounded=0;orthogonalLoop=1;jettySize=auto;html=1;exitX=0.28;exitY=0.99;exitDx=0;exitDy=0;exitPerimeter=0;entryX=0.25;entryY=0;entryDx=0;entryDy=0;" edge="1" parent="1" source="JQA1jgwv4ob85xbCMon5-6" target="JQA1jgwv4ob85xbCMon5-7">
          <mxGeometry relative="1" as="geometry" />
        </mxCell>
        <mxCell id="JQA1jgwv4ob85xbCMon5-6" value="" style="aspect=fixed;sketch=0;html=1;dashed=0;whitespace=wrap;fillColor=#2875E2;strokeColor=#ffffff;points=[[0.005,0.63,0],[0.1,0.2,0],[0.9,0.2,0],[0.5,0,0],[0.995,0.63,0],[0.72,0.99,0],[0.5,1,0],[0.28,0.99,0]];shape=mxgraph.kubernetes.icon2;prIcon=api" vertex="1" parent="1">
          <mxGeometry x="617.5" y="110" width="125" height="120" as="geometry" />
        </mxCell>
        <mxCell id="JQA1jgwv4ob85xbCMon5-7" value="" style="image;aspect=fixed;perimeter=ellipsePerimeter;html=1;align=center;shadow=0;dashed=0;spacingTop=3;image=img/lib/active_directory/database.svg;" vertex="1" parent="1">
          <mxGeometry x="592.16" y="470" width="175.68" height="130" as="geometry" />
        </mxCell>
        <mxCell id="JQA1jgwv4ob85xbCMon5-8" value="API" style="text;html=1;strokeColor=none;fillColor=none;align=center;verticalAlign=middle;whiteSpace=wrap;rounded=0;" vertex="1" parent="1">
          <mxGeometry x="650" y="70" width="60" height="30" as="geometry" />
        </mxCell>
        <mxCell id="JQA1jgwv4ob85xbCMon5-9" value="Database" style="text;html=1;strokeColor=none;fillColor=none;align=center;verticalAlign=middle;whiteSpace=wrap;rounded=0;" vertex="1" parent="1">
          <mxGeometry x="650" y="600" width="60" height="30" as="geometry" />
        </mxCell>
        <mxCell id="JQA1jgwv4ob85xbCMon5-10" value="" style="rounded=1;whiteSpace=wrap;html=1;arcSize=2;" vertex="1" parent="1">
          <mxGeometry x="60" y="100" width="380" height="510" as="geometry" />
        </mxCell>
        <mxCell id="JQA1jgwv4ob85xbCMon5-11" value="React App" style="text;html=1;strokeColor=none;fillColor=none;align=center;verticalAlign=middle;whiteSpace=wrap;rounded=0;" vertex="1" parent="1">
          <mxGeometry x="220" y="60" width="60" height="30" as="geometry" />
        </mxCell>
        <mxCell id="JQA1jgwv4ob85xbCMon5-12" value="Component 1" style="rounded=1;whiteSpace=wrap;html=1;" vertex="1" parent="1">
          <mxGeometry x="70" y="110" width="110" height="40" as="geometry" />
        </mxCell>
        <mxCell id="JQA1jgwv4ob85xbCMon5-13" value="Component 3" style="rounded=1;whiteSpace=wrap;html=1;" vertex="1" parent="1">
          <mxGeometry x="195" y="110" width="110" height="40" as="geometry" />
        </mxCell>
        <mxCell id="JQA1jgwv4ob85xbCMon5-14" value="Component 3" style="rounded=1;whiteSpace=wrap;html=1;" vertex="1" parent="1">
          <mxGeometry x="320" y="110" width="110" height="40" as="geometry" />
        </mxCell>
        <mxCell id="JQA1jgwv4ob85xbCMon5-15" value="Component 4" style="rounded=1;whiteSpace=wrap;html=1;" vertex="1" parent="1">
          <mxGeometry x="70" y="170" width="110" height="40" as="geometry" />
        </mxCell>
        <mxCell id="JQA1jgwv4ob85xbCMon5-16" value="Component 5" style="rounded=1;whiteSpace=wrap;html=1;" vertex="1" parent="1">
          <mxGeometry x="195" y="170" width="110" height="40" as="geometry" />
        </mxCell>
        <mxCell id="JQA1jgwv4ob85xbCMon5-17" value="Component 6" style="rounded=1;whiteSpace=wrap;html=1;" vertex="1" parent="1">
          <mxGeometry x="320" y="170" width="110" height="40" as="geometry" />
        </mxCell>
        <mxCell id="JQA1jgwv4ob85xbCMon5-18" value="" style="rounded=1;whiteSpace=wrap;html=1;arcSize=2;" vertex="1" parent="1">
          <mxGeometry x="70" y="270" width="360" height="330" as="geometry" />
        </mxCell>
        <mxCell id="JQA1jgwv4ob85xbCMon5-19" value="App Component" style="text;html=1;strokeColor=none;fillColor=none;align=center;verticalAlign=middle;whiteSpace=wrap;rounded=0;" vertex="1" parent="1">
          <mxGeometry x="210" y="240" width="90" height="30" as="geometry" />
        </mxCell>
        <mxCell id="JQA1jgwv4ob85xbCMon5-24" style="edgeStyle=orthogonalEdgeStyle;rounded=0;orthogonalLoop=1;jettySize=auto;html=1;exitX=1;exitY=0.25;exitDx=0;exitDy=0;entryX=0.1;entryY=0.2;entryDx=0;entryDy=0;entryPerimeter=0;" edge="1" parent="1" source="JQA1jgwv4ob85xbCMon5-14" target="JQA1jgwv4ob85xbCMon5-6">
          <mxGeometry relative="1" as="geometry" />
        </mxCell>
        <mxCell id="JQA1jgwv4ob85xbCMon5-25" style="edgeStyle=orthogonalEdgeStyle;rounded=0;orthogonalLoop=1;jettySize=auto;html=1;exitX=0.005;exitY=0.63;exitDx=0;exitDy=0;exitPerimeter=0;entryX=1;entryY=0.75;entryDx=0;entryDy=0;" edge="1" parent="1" source="JQA1jgwv4ob85xbCMon5-6" target="JQA1jgwv4ob85xbCMon5-14">
          <mxGeometry relative="1" as="geometry" />
        </mxCell>
        <mxCell id="JQA1jgwv4ob85xbCMon5-27" style="edgeStyle=orthogonalEdgeStyle;rounded=0;orthogonalLoop=1;jettySize=auto;html=1;exitX=0.75;exitY=0;exitDx=0;exitDy=0;entryX=0.72;entryY=0.99;entryDx=0;entryDy=0;entryPerimeter=0;" edge="1" parent="1" source="JQA1jgwv4ob85xbCMon5-7" target="JQA1jgwv4ob85xbCMon5-6">
          <mxGeometry relative="1" as="geometry" />
        </mxCell>
        <mxCell id="JQA1jgwv4ob85xbCMon5-28" value="" style="rounded=1;whiteSpace=wrap;html=1;arcSize=3;dashed=1;" vertex="1" parent="1">
          <mxGeometry x="80" y="300" width="340" height="290" as="geometry" />
        </mxCell>
        <mxCell id="JQA1jgwv4ob85xbCMon5-29" value="React Router" style="text;html=1;strokeColor=none;fillColor=none;align=center;verticalAlign=middle;whiteSpace=wrap;rounded=0;" vertex="1" parent="1">
          <mxGeometry x="210" y="270" width="80" height="30" as="geometry" />
        </mxCell>
        <mxCell id="JQA1jgwv4ob85xbCMon5-30" value="Login Page" style="rounded=1;whiteSpace=wrap;html=1;arcSize=5;" vertex="1" parent="1">
          <mxGeometry x="90" y="340" width="120" height="100" as="geometry" />
        </mxCell>
        <mxCell id="JQA1jgwv4ob85xbCMon5-31" value="Register Page" style="rounded=1;whiteSpace=wrap;html=1;arcSize=5;" vertex="1" parent="1">
          <mxGeometry x="90" y="480" width="120" height="100" as="geometry" />
        </mxCell>
        <mxCell id="JQA1jgwv4ob85xbCMon5-33" value="" style="rounded=1;whiteSpace=wrap;html=1;arcSize=5;" vertex="1" parent="1">
          <mxGeometry x="240" y="340" width="160" height="240" as="geometry" />
        </mxCell>
        <mxCell id="JQA1jgwv4ob85xbCMon5-34" value="Protected Route" style="text;html=1;strokeColor=none;fillColor=none;align=center;verticalAlign=middle;whiteSpace=wrap;rounded=0;" vertex="1" parent="1">
          <mxGeometry x="275" y="340" width="90" height="30" as="geometry" />
        </mxCell>
        <mxCell id="JQA1jgwv4ob85xbCMon5-36" value="Page 1" style="rounded=1;whiteSpace=wrap;html=1;arcSize=5;" vertex="1" parent="1">
          <mxGeometry x="250" y="370" width="140" height="40" as="geometry" />
        </mxCell>
        <mxCell id="JQA1jgwv4ob85xbCMon5-37" value="Page 2" style="rounded=1;whiteSpace=wrap;html=1;arcSize=5;" vertex="1" parent="1">
          <mxGeometry x="250" y="425" width="140" height="40" as="geometry" />
        </mxCell>
        <mxCell id="JQA1jgwv4ob85xbCMon5-38" value="Page 3" style="rounded=1;whiteSpace=wrap;html=1;arcSize=5;" vertex="1" parent="1">
          <mxGeometry x="250" y="480" width="140" height="40" as="geometry" />
        </mxCell>
        <mxCell id="JQA1jgwv4ob85xbCMon5-39" value="Page 4" style="rounded=1;whiteSpace=wrap;html=1;arcSize=5;" vertex="1" parent="1">
          <mxGeometry x="250" y="530" width="140" height="40" as="geometry" />
        </mxCell>
      </root>
    </mxGraphModel>
  </diagram>
</mxfile>
